#N canvas 551 212 599 561 10;
#X obj 128 31 bng 15 250 50 0 empty empty empty 17 7 0 10 -262144 -1
-1;
#X obj 53 23 tgl 15 0 empty empty empty 17 7 0 10 -262144 -1 -1 0 1
;
#X msg 105 91 setup_wiringPi;
#X obj 53 172 unpack f f f f f f f f;
#X obj 37 227 vsl 15 128 0 4096 0 0 empty empty empty 0 -9 0 10 -262144
-1 -1 0 1;
#X obj 63 227 vsl 15 128 0 1023 0 0 empty empty empty 0 -9 0 10 -262144
-1 -1 0 1;
#X obj 89 227 vsl 15 128 0 1023 0 0 empty empty empty 0 -9 0 10 -262144
-1 -1 0 1;
#X obj 115 227 vsl 15 128 0 1023 0 0 empty empty empty 0 -9 0 10 -262144
-1 -1 0 1;
#X obj 140 227 vsl 15 128 0 1023 0 0 empty empty empty 0 -9 0 10 -262144
-1 -1 0 1;
#X obj 166 227 vsl 15 128 0 1023 0 0 empty empty empty 0 -9 0 10 -262144
-1 -1 0 1;
#X obj 192 227 vsl 15 128 0 1023 0 0 empty empty empty 0 -9 0 10 -262144
-1 -1 0 1;
#X obj 218 227 vsl 15 128 0 1023 0 0 empty empty empty 0 -9 0 10 -262144
-1 -1 0 1;
#X text 216 61 2 once creation args in main object are specified \,
click on this message to enable the adcs., f 28;
#X text 155 507 Jaime Oliver La Rosa - 2014 (la.rosa@nyu.edu);
#X text 252 141 1 args are (spi_port \, No. of ADCs to read). Once
you run setup_wiringPi you can't change these numbers or it'll crash
when you run the setup message again. *, f 27;
#X text 283 247 0 For this object to work you must have wiringPi installed
in your pi \, then run "sudo gpio load spi"., f 26;
#X text 154 30 3 bang to outout a list of values;
#X text 34 388 This object uses the wiringPi library. For more information
see: http://www.wiringpi.com, f 38;
#X obj 53 44 metro 5;
#X text 156 489 Malte Steiner 2017 \, base on works by:;
#X obj 53 144 wiring/wiringPi_mcp3208 0 8;
#X connect 0 0 20 0;
#X connect 1 0 18 0;
#X connect 2 0 20 0;
#X connect 3 0 4 0;
#X connect 3 1 5 0;
#X connect 3 2 6 0;
#X connect 3 3 7 0;
#X connect 3 4 8 0;
#X connect 3 5 9 0;
#X connect 3 6 10 0;
#X connect 3 7 11 0;
#X connect 18 0 20 0;
#X connect 20 0 3 0;
